solid Exported from Blender-2.79 (sub 0)
facet normal 0.689152 0.223919 0.689152
outer loop
vertex 1.040000 0.000000 0.000000
vertex 0.841378 0.611297 0.000000
vertex 0.809017 0.587785 0.040000
endloop
endfacet
facet normal 0.689152 0.223919 0.689151
outer loop
vertex 0.809017 0.587785 0.040000
vertex 1.000000 0.000000 0.040000
vertex 1.040000 0.000000 0.000000
endloop
endfacet
facet normal -0.689152 -0.223919 0.689152
outer loop
vertex 1.000000 0.000000 0.040000
vertex 0.809017 0.587785 0.040000
vertex 0.776656 0.564274 0.000000
endloop
endfacet
facet normal -0.689152 -0.223919 0.689151
outer loop
vertex 0.776656 0.564274 0.000000
vertex 0.960000 0.000000 0.000000
vertex 1.000000 0.000000 0.040000
endloop
endfacet
facet normal -0.689152 -0.223919 -0.689152
outer loop
vertex 0.960000 0.000000 0.000000
vertex 0.776656 0.564274 0.000000
vertex 0.809017 0.587785 -0.040000
endloop
endfacet
facet normal -0.689152 -0.223919 -0.689151
outer loop
vertex 0.809017 0.587785 -0.040000
vertex 1.000000 0.000000 -0.040000
vertex 0.960000 0.000000 0.000000
endloop
endfacet
facet normal 0.689152 0.223919 -0.689152
outer loop
vertex 0.841378 0.611297 0.000000
vertex 1.040000 0.000000 0.000000
vertex 1.000000 0.000000 -0.040000
endloop
endfacet
facet normal 0.689152 0.223919 -0.689152
outer loop
vertex 1.000000 0.000000 -0.040000
vertex 0.809017 0.587785 -0.040000
vertex 0.841378 0.611297 0.000000
endloop
endfacet
facet normal 0.425918 0.586226 0.689153
outer loop
vertex 0.841378 0.611297 0.000000
vertex 0.321378 0.989099 0.000000
vertex 0.309017 0.951056 0.040000
endloop
endfacet
facet normal 0.425919 0.586227 0.689152
outer loop
vertex 0.309017 0.951056 0.040000
vertex 0.809017 0.587785 0.040000
vertex 0.841378 0.611297 0.000000
endloop
endfacet
facet normal -0.425919 -0.586227 0.689152
outer loop
vertex 0.809017 0.587785 0.040000
vertex 0.309017 0.951056 0.040000
vertex 0.296657 0.913014 0.000000
endloop
endfacet
facet normal -0.425920 -0.586228 0.689151
outer loop
vertex 0.296657 0.913014 0.000000
vertex 0.776656 0.564274 0.000000
vertex 0.809017 0.587785 0.040000
endloop
endfacet
facet normal -0.425919 -0.586228 -0.689151
outer loop
vertex 0.776656 0.564274 0.000000
vertex 0.296657 0.913014 0.000000
vertex 0.309017 0.951056 -0.040000
endloop
endfacet
facet normal -0.425919 -0.586227 -0.689152
outer loop
vertex 0.309017 0.951056 -0.040000
vertex 0.809017 0.587785 -0.040000
vertex 0.776656 0.564274 0.000000
endloop
endfacet
facet normal 0.425919 0.586227 -0.689152
outer loop
vertex 0.809017 0.587785 -0.040000
vertex 0.309017 0.951056 -0.040000
vertex 0.321378 0.989099 0.000000
endloop
endfacet
facet normal 0.425919 0.586227 -0.689153
outer loop
vertex 0.321378 0.989099 0.000000
vertex 0.841378 0.611297 0.000000
vertex 0.809017 0.587785 -0.040000
endloop
endfacet
facet normal 0.000000 0.724618 0.689151
outer loop
vertex 0.321378 0.989099 0.000000
vertex -0.321378 0.989099 0.000000
vertex -0.309017 0.951056 0.040000
endloop
endfacet
facet normal 0.000000 0.724618 0.689151
outer loop
vertex -0.309017 0.951056 0.040000
vertex 0.309017 0.951056 0.040000
vertex 0.321378 0.989099 0.000000
endloop
endfacet
facet normal 0.000000 -0.724616 0.689153
outer loop
vertex 0.309017 0.951056 0.040000
vertex -0.309017 0.951056 0.040000
vertex -0.296656 0.913014 0.000000
endloop
endfacet
facet normal 0.000000 -0.724617 0.689152
outer loop
vertex -0.296656 0.913014 0.000000
vertex 0.296657 0.913014 0.000000
vertex 0.309017 0.951056 0.040000
endloop
endfacet
facet normal 0.000000 -0.724617 -0.689152
outer loop
vertex 0.296657 0.913014 0.000000
vertex -0.296656 0.913014 0.000000
vertex -0.309017 0.951056 -0.040000
endloop
endfacet
facet normal 0.000000 -0.724616 -0.689153
outer loop
vertex -0.309017 0.951056 -0.040000
vertex 0.309017 0.951056 -0.040000
vertex 0.296657 0.913014 0.000000
endloop
endfacet
facet normal 0.000000 0.724618 -0.689151
outer loop
vertex 0.309017 0.951056 -0.040000
vertex -0.309017 0.951056 -0.040000
vertex -0.321378 0.989099 0.000000
endloop
endfacet
facet normal 0.000000 0.724618 -0.689151
outer loop
vertex -0.321378 0.989099 0.000000
vertex 0.321378 0.989099 0.000000
vertex 0.309017 0.951056 -0.040000
endloop
endfacet
facet normal -0.425920 0.586228 0.689151
outer loop
vertex -0.321378 0.989099 0.000000
vertex -0.841378 0.611296 0.000000
vertex -0.809017 0.587785 0.040000
endloop
endfacet
facet normal -0.425918 0.586226 0.689153
outer loop
vertex -0.809017 0.587785 0.040000
vertex -0.309017 0.951056 0.040000
vertex -0.321378 0.989099 0.000000
endloop
endfacet
facet normal 0.425920 -0.586228 0.689151
outer loop
vertex -0.309017 0.951056 0.040000
vertex -0.809017 0.587785 0.040000
vertex -0.776657 0.564274 0.000000
endloop
endfacet
facet normal 0.425920 -0.586228 0.689151
outer loop
vertex -0.776657 0.564274 0.000000
vertex -0.296656 0.913014 0.000000
vertex -0.309017 0.951056 0.040000
endloop
endfacet
facet normal 0.425920 -0.586228 -0.689151
outer loop
vertex -0.296656 0.913014 0.000000
vertex -0.776657 0.564274 0.000000
vertex -0.809017 0.587785 -0.040000
endloop
endfacet
facet normal 0.425920 -0.586228 -0.689151
outer loop
vertex -0.809017 0.587785 -0.040000
vertex -0.309017 0.951056 -0.040000
vertex -0.296656 0.913014 0.000000
endloop
endfacet
facet normal -0.425919 0.586227 -0.689152
outer loop
vertex -0.309017 0.951056 -0.040000
vertex -0.809017 0.587785 -0.040000
vertex -0.841378 0.611296 0.000000
endloop
endfacet
facet normal -0.425919 0.586227 -0.689152
outer loop
vertex -0.841378 0.611296 0.000000
vertex -0.321378 0.989099 0.000000
vertex -0.309017 0.951056 -0.040000
endloop
endfacet
facet normal -0.689152 0.223919 0.689152
outer loop
vertex -0.841378 0.611296 0.000000
vertex -1.040000 0.000000 0.000000
vertex -1.000000 0.000000 0.040000
endloop
endfacet
facet normal -0.689152 0.223919 0.689152
outer loop
vertex -1.000000 0.000000 0.040000
vertex -0.809017 0.587785 0.040000
vertex -0.841378 0.611296 0.000000
endloop
endfacet
facet normal 0.689152 -0.223919 0.689152
outer loop
vertex -0.809017 0.587785 0.040000
vertex -1.000000 0.000000 0.040000
vertex -0.960000 0.000000 0.000000
endloop
endfacet
facet normal 0.689152 -0.223919 0.689152
outer loop
vertex -0.960000 0.000000 0.000000
vertex -0.776657 0.564274 0.000000
vertex -0.809017 0.587785 0.040000
endloop
endfacet
facet normal 0.689152 -0.223919 -0.689152
outer loop
vertex -0.776657 0.564274 0.000000
vertex -0.960000 0.000000 0.000000
vertex -1.000000 0.000000 -0.040000
endloop
endfacet
facet normal 0.689152 -0.223919 -0.689151
outer loop
vertex -1.000000 0.000000 -0.040000
vertex -0.809017 0.587785 -0.040000
vertex -0.776657 0.564274 0.000000
endloop
endfacet
facet normal -0.689152 0.223919 -0.689152
outer loop
vertex -0.809017 0.587785 -0.040000
vertex -1.000000 0.000000 -0.040000
vertex -1.040000 0.000000 0.000000
endloop
endfacet
facet normal -0.689152 0.223919 -0.689151
outer loop
vertex -1.040000 0.000000 0.000000
vertex -0.841378 0.611296 0.000000
vertex -0.809017 0.587785 -0.040000
endloop
endfacet
facet normal -0.689152 -0.223919 0.689152
outer loop
vertex -1.040000 0.000000 0.000000
vertex -0.841378 -0.611296 0.000000
vertex -0.809017 -0.587785 0.040000
endloop
endfacet
facet normal -0.689152 -0.223919 0.689151
outer loop
vertex -0.809017 -0.587785 0.040000
vertex -1.000000 0.000000 0.040000
vertex -1.040000 0.000000 0.000000
endloop
endfacet
facet normal 0.689152 0.223919 0.689151
outer loop
vertex -1.000000 0.000000 0.040000
vertex -0.809017 -0.587785 0.040000
vertex -0.776657 -0.564274 0.000000
endloop
endfacet
facet normal 0.689152 0.223919 0.689152
outer loop
vertex -0.776657 -0.564274 0.000000
vertex -0.960000 0.000000 0.000000
vertex -1.000000 0.000000 0.040000
endloop
endfacet
facet normal 0.689152 0.223919 -0.689151
outer loop
vertex -0.960000 0.000000 0.000000
vertex -0.776657 -0.564274 0.000000
vertex -0.809017 -0.587785 -0.040000
endloop
endfacet
facet normal 0.689152 0.223919 -0.689151
outer loop
vertex -0.809017 -0.587785 -0.040000
vertex -1.000000 0.000000 -0.040000
vertex -0.960000 0.000000 0.000000
endloop
endfacet
facet normal -0.689152 -0.223919 -0.689152
outer loop
vertex -1.000000 0.000000 -0.040000
vertex -0.809017 -0.587785 -0.040000
vertex -0.841378 -0.611296 0.000000
endloop
endfacet
facet normal -0.689152 -0.223919 -0.689151
outer loop
vertex -0.841378 -0.611296 0.000000
vertex -1.040000 0.000000 0.000000
vertex -1.000000 0.000000 -0.040000
endloop
endfacet
facet normal -0.425919 -0.586227 0.689152
outer loop
vertex -0.841378 -0.611296 0.000000
vertex -0.321378 -0.989099 0.000000
vertex -0.309017 -0.951056 0.040000
endloop
endfacet
facet normal -0.425919 -0.586227 0.689152
outer loop
vertex -0.309017 -0.951056 0.040000
vertex -0.809017 -0.587785 0.040000
vertex -0.841378 -0.611296 0.000000
endloop
endfacet
facet normal 0.425920 0.586228 0.689151
outer loop
vertex -0.809017 -0.587785 0.040000
vertex -0.309017 -0.951056 0.040000
vertex -0.296656 -0.913014 0.000000
endloop
endfacet
facet normal 0.425920 0.586228 0.689151
outer loop
vertex -0.296656 -0.913014 0.000000
vertex -0.776657 -0.564274 0.000000
vertex -0.809017 -0.587785 0.040000
endloop
endfacet
facet normal 0.425920 0.586228 -0.689151
outer loop
vertex -0.776657 -0.564274 0.000000
vertex -0.296656 -0.913014 0.000000
vertex -0.309017 -0.951056 -0.040000
endloop
endfacet
facet normal 0.425920 0.586228 -0.689151
outer loop
vertex -0.309017 -0.951056 -0.040000
vertex -0.809017 -0.587785 -0.040000
vertex -0.776657 -0.564274 0.000000
endloop
endfacet
facet normal -0.425918 -0.586226 -0.689153
outer loop
vertex -0.809017 -0.587785 -0.040000
vertex -0.309017 -0.951056 -0.040000
vertex -0.321378 -0.989099 0.000000
endloop
endfacet
facet normal -0.425920 -0.586228 -0.689151
outer loop
vertex -0.321378 -0.989099 0.000000
vertex -0.841378 -0.611296 0.000000
vertex -0.809017 -0.587785 -0.040000
endloop
endfacet
facet normal 0.000000 -0.724618 0.689151
outer loop
vertex -0.321378 -0.989099 0.000000
vertex 0.321378 -0.989099 0.000000
vertex 0.309017 -0.951056 0.040000
endloop
endfacet
facet normal 0.000000 -0.724618 0.689151
outer loop
vertex 0.309017 -0.951056 0.040000
vertex -0.309017 -0.951056 0.040000
vertex -0.321378 -0.989099 0.000000
endloop
endfacet
facet normal 0.000000 0.724616 0.689153
outer loop
vertex -0.309017 -0.951056 0.040000
vertex 0.309017 -0.951056 0.040000
vertex 0.296657 -0.913014 0.000000
endloop
endfacet
facet normal 0.000000 0.724617 0.689152
outer loop
vertex 0.296657 -0.913014 0.000000
vertex -0.296656 -0.913014 0.000000
vertex -0.309017 -0.951056 0.040000
endloop
endfacet
facet normal 0.000000 0.724617 -0.689152
outer loop
vertex -0.296656 -0.913014 0.000000
vertex 0.296657 -0.913014 0.000000
vertex 0.309017 -0.951056 -0.040000
endloop
endfacet
facet normal 0.000000 0.724616 -0.689153
outer loop
vertex 0.309017 -0.951056 -0.040000
vertex -0.309017 -0.951056 -0.040000
vertex -0.296656 -0.913014 0.000000
endloop
endfacet
facet normal 0.000000 -0.724618 -0.689151
outer loop
vertex -0.309017 -0.951056 -0.040000
vertex 0.309017 -0.951056 -0.040000
vertex 0.321378 -0.989099 0.000000
endloop
endfacet
facet normal 0.000000 -0.724618 -0.689151
outer loop
vertex 0.321378 -0.989099 0.000000
vertex -0.321378 -0.989099 0.000000
vertex -0.309017 -0.951056 -0.040000
endloop
endfacet
facet normal 0.425919 -0.586227 0.689152
outer loop
vertex 0.321378 -0.989099 0.000000
vertex 0.841377 -0.611297 0.000000
vertex 0.809017 -0.587786 0.040000
endloop
endfacet
facet normal 0.425920 -0.586228 0.689151
outer loop
vertex 0.809017 -0.587786 0.040000
vertex 0.309017 -0.951056 0.040000
vertex 0.321378 -0.989099 0.000000
endloop
endfacet
facet normal -0.425919 0.586228 0.689152
outer loop
vertex 0.309017 -0.951056 0.040000
vertex 0.809017 -0.587786 0.040000
vertex 0.776656 -0.564274 0.000000
endloop
endfacet
facet normal -0.425919 0.586228 0.689152
outer loop
vertex 0.776656 -0.564274 0.000000
vertex 0.296657 -0.913014 0.000000
vertex 0.309017 -0.951056 0.040000
endloop
endfacet
facet normal -0.425919 0.586228 -0.689152
outer loop
vertex 0.296657 -0.913014 0.000000
vertex 0.776656 -0.564274 0.000000
vertex 0.809017 -0.587786 -0.040000
endloop
endfacet
facet normal -0.425919 0.586228 -0.689152
outer loop
vertex 0.809017 -0.587786 -0.040000
vertex 0.309017 -0.951056 -0.040000
vertex 0.296657 -0.913014 0.000000
endloop
endfacet
facet normal 0.425920 -0.586228 -0.689151
outer loop
vertex 0.309017 -0.951056 -0.040000
vertex 0.809017 -0.587786 -0.040000
vertex 0.841377 -0.611297 0.000000
endloop
endfacet
facet normal 0.425919 -0.586228 -0.689152
outer loop
vertex 0.841377 -0.611297 0.000000
vertex 0.321378 -0.989099 0.000000
vertex 0.309017 -0.951056 -0.040000
endloop
endfacet
facet normal 0.689152 -0.223919 0.689151
outer loop
vertex 0.841377 -0.611297 0.000000
vertex 1.040000 0.000000 0.000000
vertex 1.000000 0.000000 0.040000
endloop
endfacet
facet normal 0.689152 -0.223919 0.689151
outer loop
vertex 1.000000 0.000000 0.040000
vertex 0.809017 -0.587786 0.040000
vertex 0.841377 -0.611297 0.000000
endloop
endfacet
facet normal -0.689152 0.223919 0.689151
outer loop
vertex 0.809017 -0.587786 0.040000
vertex 1.000000 0.000000 0.040000
vertex 0.960000 0.000000 0.000000
endloop
endfacet
facet normal -0.689152 0.223919 0.689151
outer loop
vertex 0.960000 0.000000 0.000000
vertex 0.776656 -0.564274 0.000000
vertex 0.809017 -0.587786 0.040000
endloop
endfacet
facet normal -0.689152 0.223919 -0.689151
outer loop
vertex 0.776656 -0.564274 0.000000
vertex 0.960000 0.000000 0.000000
vertex 1.000000 0.000000 -0.040000
endloop
endfacet
facet normal -0.689152 0.223919 -0.689151
outer loop
vertex 1.000000 0.000000 -0.040000
vertex 0.809017 -0.587786 -0.040000
vertex 0.776656 -0.564274 0.000000
endloop
endfacet
facet normal 0.689152 -0.223920 -0.689151
outer loop
vertex 1.040000 0.000000 0.000000
vertex 0.841377 -0.611297 0.000000
vertex 0.809017 -0.587786 -0.040000
endloop
endfacet
facet normal 0.689152 -0.223919 -0.689152
outer loop
vertex 0.809017 -0.587786 -0.040000
vertex 1.000000 0.000000 -0.040000
vertex 1.040000 0.000000 0.000000
endloop
endfacet
endsolid Exported from Blender-2.79 (sub 0)
